:FULLY-SPECIFIED
:FORCE-ALL-JOINTS-BE-3DOF
:DEGREES
340
root 8.15614 16.0897 -20.4162 10.6405 23.5652 4.11277
lfemur -8.91782 15.8686 -9.93419
ltibia 41.4892 0 0
lfoot 4.67092 27.7705 0
ltoes -24.9713 0 0
rfemur -47.3493 -14.2718 10.568
rtibia 54.6772 0 0
rfoot 1.94819 -17.3508 0
rtoes 8.80683 0 0
lowerback -0.310548 -1.68984 -1.54192
upperback 1.95947 -2.24232 -0.0931383
thorax 2.24384 -1.14383 0.723363
lowerneck -5.66065 -8.65369 -0.437066
upperneck -2.02677 -11.5245 6.51788
head 0.752997 -5.70488 1.81798
lclavicle -5.03976e-14 -4.92551e-16 0
lhumerus -48.2686 -35.0929 109.694
lradius 57.3345 0 0
lwrist 18.6343 0 0
lhand 6.29734 11.7446 0
lfingers 7.12502 0 0
lthumb 31.6008 38.9773 0
rclavicle -5.03976e-14 -4.92551e-16 0
rhumerus -22.3205 18.2953 -73.7244
rradius 84.0294 0 0
rwrist 3.01012 0 0
rhand -10.5087 -10.4447 0
rfingers 7.12502 0 0
rthumb 15.4317 -759.019 0
341
root 8.08589 16.1257 -20.2036 10.4222 21.6055 3.42144
lfemur -8.1794 14.4002 -9.10454
ltibia 41.8282 0 0
lfoot 6.63005 28.391 0
ltoes -23.0903 0 0
rfemur -47.2434 -15.0478 12.6188
rtibia 54.3923 0 0
rfoot 0.908531 -16.2963 0
rtoes 4.87604 0 0
lowerback -0.640446 -1.61028 -1.27448
upperback 1.85574 -2.1385 0.0580595
thorax 2.31514 -1.08902 0.722397
lowerneck -5.88789 -8.31942 -0.48739
upperneck -1.6336 -11.0993 6.40262
head 0.896147 -5.48024 1.78346
lclavicle -5.06931e-14 1.13835e-15 0
lhumerus -48.1943 -33.7262 109.315
lradius 57.0177 0 0
lwrist 19.1043 0 0
lhand 5.52523 11.4856 0
lfingers 7.12502 0 0
lthumb 30.8657 38.8658 0
rclavicle -5.06931e-14 1.13835e-15 0
rhumerus -24.0817 17.6561 -76.0332
rradius 83.952 0 0
rwrist 2.9149 0 0
rhand -14.5454 -12.2135 0
rfingers 7.12502 0 0
rthumb 11.5519 -761.15 0
342
root 8.01884 16.1599 -20.0017 10.2114 19.7446 2.76631
lfemur -7.48418 13.013 -8.31666
ltibia 42.1702 0 0
lfoot 8.46449 28.9585 0
ltoes -21.2165 0 0
rfemur -47.1302 -15.7804 14.5612
rtibia 54.1159 0 0
rfoot -0.0866265 -15.285 0
rtoes 1.20611 0 0
lowerback -0.946411 -1.53422 -1.02198
upperback 1.75951 -2.03931 0.201375
thorax 2.38112 -1.03668 0.722238
lowerneck -6.10269 -8.00209 -0.534161
upperneck -1.26061 -10.6957 6.29176
head 1.03171 -5.26702 1.75023
lclavicle -5.02266e-14 2.67904e-15 0
lhumerus -48.1226 -32.4354 108.956
lradius 56.7181 0 0
lwrist 19.536 0 0
lhand 4.7913 11.2373 0
lfingers 7.12502 0 0
lthumb 30.1668 38.7572 0
rclavicle -5.02266e-14 2.67904e-15 0
rhumerus -25.7507 17.0446 -78.2207
rradius 83.8693 0 0
rwrist 2.8357 0 0
rhand -18.4407 -13.929 0
rfingers 7.12502 0 0
rthumb 7.80763 -763.204 0
343
root 7.95746 16.1911 -19.8182 10.0156 18.0533 2.17298
lfemur -6.86096 11.7628 -7.6011
ltibia 42.5074 0 0
lfoot 10.0983 29.4453 0
ltoes -19.3968 0 0
rfemur -47.0108 -16.441 16.3187
rtibia 53.8575 0 0
rfoot -1.00138 -14.354 0
rtoes -2.04725 0 0
lowerback -1.21554 -1.46469 -0.794566
upperback 1.67482 -1.9487 0.331363
thorax 2.439 -0.988922 0.723238
lowerneck -6.29652 -7.71364 -0.575727
upperneck -0.922104 -10.3287 6.18911
head 1.15443 -5.07328 1.71949
lclavicle -4.908e-14 4.08965e-15 0
lhumerus -48.0555 -31.2702 108.629
lradius 56.4476 0 0
lwrist 19.9094 0 0
lhand 4.12261 11.0084 0
lfingers 7.12502 0 0
lthumb 29.5301 38.6552 0
rclavicle -4.908e-14 4.08965e-15 0
rhumerus -27.2624 16.485 -80.2015
rradius 83.7826 0 0
rwrist 2.78015 0 0
rhand -22.0401 -15.5303 0
rfingers 7.12502 0 0
rthumb 4.34735 -765.104 0
344
root 7.90424 16.2178 -19.6608 9.84268 16.602 1.66704
lfemur -6.33851 10.7052 -6.98842
ltibia 42.8317 0 0
lfoot 11.4556 29.8239 0
ltoes -17.6781 0 0
rfemur -46.8859 -17.0008 17.8148
rtibia 53.6265 0 0
rfoot -1.79982 -13.5404 0
rtoes -4.72832 0 0
lowerback -1.43493 -1.40473 -0.602422
upperback 1.60573 -1.87063 0.44258
thorax 2.48597 -0.947822 0.725753
lowerneck -6.46086 -7.46601 -0.610438
upperneck -0.632366 -10.0135 6.09847
head 1.25905 -4.90703 1.69242
lclavicle -4.73353e-14 5.3303e-15 0
lhumerus -47.995 -30.2804 108.348
lradius 56.2178 0 0
lwrist 20.2046 0 0
lhand 3.54623 10.8078 0
lfingers 7.12502 0 0
lthumb 28.9811 38.5633 0
rclavicle -4.73353e-14 5.3303e-15 0
rhumerus -28.5519 16.0011 -81.8902
rradius 83.6933 0 0
rwrist 2.75589 0 0
rhand -25.1889 -16.9567 0
rfingers 7.12502 0 0
rthumb 1.31951 -766.77 0
345
root 7.86167 16.2389 -19.5372 9.70011 15.4616 1.27409
lfemur -5.9456 9.89612 -6.50917
ltibia 43.1352 0 0
lfoot 12.4603 30.0664 0
ltoes -16.1074 0 0
rfemur -46.7567 -17.4311 18.9732
rtibia 53.4326 0 0
rfoot -2.44603 -12.8812 0
rtoes -6.6814 0 0
lowerback -1.59169 -1.35738 -0.455707
upperback 1.55628 -1.80903 0.529581
thorax 2.51926 -0.915477 0.730137
lowerneck -6.58717 -7.27114 -0.636643
upperneck -0.405685 -9.76516 6.02366
head 1.34033 -4.77631 1.67023
lclavicle -4.50744e-14 6.36111e-15 0
lhumerus -47.9433 -29.5156 108.126
lradius 56.0405 0 0
lwrist 20.4017 0 0
lhand 3.08925 10.6443 0
lfingers 7.12502 0 0
lthumb 28.5458 38.4852 0
rclavicle -4.50744e-14 6.36111e-15 0
rhumerus -29.5543 15.617 -83.2014
rradius 83.6027 0 0
rwrist 2.77055 0 0
rhand -27.7324 -18.1472 0
rfingers 7.12502 0 0
rthumb -1.12744 -768.124 0
346
root 7.74774 16.2888 -19.2546 9.21754 12.8439 0.453028
lfemur -5.36879 8.43571 -5.43339
ltibia 44.8259 0 0
lfoot 13.4529 29.5712 0
ltoes -8.0247 0 0
rfemur -45.8327 -18.2138 21.333
rtibia 52.7126 0 0
rfoot -4.31285 -10.9212 0
rtoes -7.97858 0 0
lowerback -1.61063 -1.23369 -0.197119
upperback 1.54937 -1.65046 0.718367
thorax 2.51681 -0.833818 0.782373
lowerneck -6.82462 -6.82256 -0.66097
upperneck 0.0955827 -9.18958 5.77942
head 1.50822 -4.4778 1.59851
lclavicle -9.49819e-15 1.0051e-14 0
lhumerus -47.7518 -28.0643 107.61
lradius 55.6969 0 0
lwrist 20.116 0 0
lhand 1.98284 10.1394 0
lfingers 7.12502 0 0
lthumb 27.4898 38.1683 0
rclavicle -9.49819e-15 1.0051e-14 0
rhumerus -31.6518 14.597 -85.9285
rradius 82.9534 0 0
rwrist 3.43424 0 0
rhand -35.911 -22.3795 0
rfingers 7.12502 0 0
rthumb -9.01328 -772.36 0
